<?xml version="1.0" encoding="utf-8"?>
<!-- Generator: Adobe Illustrator 26.0.0, SVG Export Plug-In . SVG Version: 6.00 Build 0)  -->
<svg version="1.1" id="Capa_1" xmlns="http://www.w3.org/2000/svg" xmlns:xlink="http://www.w3.org/1999/xlink" x="0px" y="0px"
	 viewBox="0 0 200 200" style="enable-background:new 0 0 200 200;" xml:space="preserve">
<style type="text/css">
	.st0{fill:#263339;}
	.st1{fill:#FFFFFF;}
</style>
<g>
	<path class="st0" d="M100.06,152.17c-30.07,0-54.53-24.46-54.53-54.53c0-30.07,24.46-54.53,54.53-54.53
		c30.07,0,54.53,24.46,54.53,54.53C154.59,127.71,130.13,152.17,100.06,152.17z M100.06,17.84c-44,0-79.8,35.8-79.8,79.8
		s35.8,79.8,79.8,79.8s79.8-35.8,79.8-79.8S144.06,17.84,100.06,17.84z"/>
</g>
<g>
	<path class="st1" d="M100.06,157.68c-33.11,0-60.04-26.94-60.04-60.04s26.94-60.04,60.04-60.04s60.04,26.94,60.04,60.04
		S133.17,157.68,100.06,157.68z M100.06,39.17c-32.24,0-58.46,26.23-58.46,58.46s26.23,58.46,58.46,58.46
		c32.24,0,58.46-26.23,58.46-58.46S132.3,39.17,100.06,39.17z"/>
</g>
<g>
	<path class="st1" d="M58.57,151.02c-0.49-0.39-1.01-0.51-1.57-0.35c-0.56,0.15-1.1,0.56-1.63,1.21c-1.09,1.36-1.12,2.46-0.1,3.27
		c0.43,0.34,1.04,0.65,1.82,0.92l-0.87,1.09c-0.67-0.19-1.31-0.54-1.93-1.03c-0.89-0.71-1.36-1.52-1.4-2.44
		c-0.04-0.92,0.34-1.88,1.15-2.89c0.51-0.64,1.07-1.1,1.68-1.4c0.61-0.29,1.24-0.4,1.88-0.3c0.64,0.09,1.25,0.37,1.83,0.83
		c0.59,0.48,1.08,1.1,1.45,1.86l-1.26,0.72c-0.14-0.29-0.3-0.57-0.46-0.84C58.98,151.42,58.79,151.2,58.57,151.02z"/>
	<path class="st1" d="M57.72,158.54l4.4-6.48L63.5,153l-4.4,6.48L57.72,158.54z"/>
	<path class="st1" d="M67.16,164.21l-1.85-1.02l-0.1-6.83l-0.04-0.02c-0.45,0.95-0.78,1.62-1,2.01l-1.79,3.22l-1.3-0.72l3.8-6.85
		l1.83,1.02l0.13,6.78l0.03,0.02c0.45-0.92,0.77-1.56,0.98-1.93l1.8-3.24l1.31,0.73L67.16,164.21z"/>
	<path class="st1" d="M73.58,166.98l-4.16-1.75l3.04-7.22l4.16,1.75l-0.53,1.25l-2.63-1.1l-0.67,1.59l2.45,1.03l-0.53,1.25
		l-2.44-1.03l-0.78,1.86l2.63,1.1L73.58,166.98z"/>
	<path class="st1" d="M78.84,168.72l-0.13-6.43l-0.05-0.01c-0.28,1.22-0.47,2.03-0.59,2.43l-1,3.5l-1.43-0.41l2.15-7.53l2.17,0.62
		l0.14,6.27l0.03,0.01l3.53-5.22l2.17,0.62l-2.15,7.53l-1.49-0.42l1.02-3.57c0.05-0.17,0.1-0.36,0.17-0.58
		c0.07-0.22,0.26-0.8,0.57-1.73l-0.05-0.01l-3.62,5.34L78.84,168.72z"/>
	<path class="st1" d="M91.03,171.28l-0.29-1.93l-2.83-0.42l-0.83,1.76l-1.77-0.26l3.89-7.37l2.01,0.3l1.59,8.19L91.03,171.28z
		 M90.55,167.92c-0.27-1.75-0.42-2.74-0.46-2.97c-0.03-0.23-0.05-0.41-0.06-0.54c-0.19,0.44-0.69,1.5-1.5,3.21L90.55,167.92z"/>
	<path class="st1" d="M102.74,166.46c-0.01,0.84-0.29,1.48-0.82,1.92c-0.53,0.44-1.29,0.65-2.26,0.63L98.95,169l-0.04,2.79
		l-1.66-0.03l0.13-7.83l2.5,0.04c0.95,0.02,1.67,0.23,2.16,0.65C102.51,165.03,102.75,165.65,102.74,166.46z M98.97,167.64
		l0.55,0.01c0.51,0.01,0.89-0.09,1.15-0.28c0.26-0.2,0.39-0.49,0.39-0.87c0.01-0.39-0.09-0.68-0.3-0.87c-0.21-0.19-0.54-0.29-1-0.29
		l-0.75-0.01L98.97,167.64z"/>
	<path class="st1" d="M106.03,168.56l0.29,2.99l-1.65,0.16l-0.75-7.79l2.27-0.22c1.06-0.1,1.86,0.01,2.41,0.35
		c0.55,0.34,0.86,0.9,0.93,1.68c0.04,0.46-0.04,0.88-0.26,1.26c-0.22,0.38-0.55,0.7-0.99,0.94c1.34,1.64,2.22,2.7,2.62,3.18
		l-1.83,0.18l-2.15-2.81L106.03,168.56z M105.9,167.21l0.53-0.05c0.52-0.05,0.9-0.17,1.13-0.37c0.23-0.2,0.33-0.48,0.29-0.86
		c-0.04-0.37-0.19-0.62-0.46-0.75c-0.27-0.13-0.67-0.17-1.2-0.12l-0.5,0.05L105.9,167.21z"/>
	<path class="st1" d="M116.76,169.95l-4.43,0.87l-1.5-7.69l4.43-0.87l0.26,1.33l-2.8,0.55l0.33,1.69l2.6-0.51l0.26,1.33l-2.6,0.51
		l0.39,1.98l2.8-0.55L116.76,169.95z"/>
	<path class="st1" d="M122.1,168.48l-3.69-5.26l-0.05,0.02c0.45,1.17,0.74,1.95,0.87,2.35l1.12,3.47l-1.41,0.46l-2.41-7.45l2.15-0.7
		l3.61,5.13l0.03-0.01l0.03-6.3l2.15-0.7l2.41,7.45l-1.47,0.48l-1.14-3.53c-0.05-0.17-0.11-0.36-0.18-0.58
		c-0.07-0.22-0.23-0.8-0.49-1.75l-0.05,0.02l-0.03,6.46L122.1,168.48z"/>
	<path class="st1" d="M129.15,165.88l-3.16-7.17l1.52-0.67l3.16,7.17L129.15,165.88z"/>
	<path class="st1" d="M136.76,162.14l-3.99,2.1l-3.66-6.93l3.99-2.1l0.63,1.2l-2.52,1.33l0.8,1.52l2.34-1.24l0.64,1.2l-2.35,1.24
		l0.94,1.79l2.52-1.33L136.76,162.14z"/>
	<path class="st1" d="M138.31,157.66l1.65,2.51l-1.39,0.91l-4.31-6.54l1.91-1.25c0.89-0.58,1.65-0.86,2.29-0.81
		c0.64,0.04,1.18,0.39,1.61,1.05c0.25,0.38,0.37,0.8,0.36,1.24c-0.02,0.44-0.16,0.87-0.44,1.3c1.95,0.82,3.22,1.35,3.8,1.58
		l-1.54,1.01l-3.21-1.48L138.31,157.66z M137.57,156.53l0.45-0.29c0.44-0.29,0.71-0.58,0.83-0.86c0.11-0.28,0.07-0.58-0.14-0.89
		c-0.2-0.31-0.46-0.46-0.76-0.45c-0.3,0.01-0.67,0.16-1.12,0.46l-0.42,0.28L137.57,156.53z"/>
	<path class="st1" d="M148.43,153.91l-3.51,2.83l-4.91-6.1l3.51-2.83l0.85,1.06l-2.22,1.79l1.08,1.34l2.06-1.66l0.85,1.06
		l-2.06,1.66l1.27,1.57l2.22-1.79L148.43,153.91z"/>
</g>
<rect x="11.24" y="63.28" class="st1" width="177.64" height="71.98"/>
<g>
	<g>
		<path class="st1" d="M39.63,53.89c0,0,0.65,0.12,1.29,0.24c0.64,0.13,1.28,0.26,1.28,0.26s0.48-0.46,0.96-0.91
			c0.5-0.44,1-0.87,1-0.87s0.04,0.65,0.07,1.3c0.03,0.64,0.11,1.3,0.11,1.3l2.25,1.29l-2.32,1c0,0-0.1,0.62-0.21,1.25
			c-0.08,0.63-0.15,1.26-0.15,1.26l-1.82-1.86c0,0-0.64,0.11-1.28,0.23c-0.64,0.12-1.29,0.25-1.29,0.25l1.22-2.36
			c0,0-0.28-0.59-0.57-1.17C39.91,54.48,39.63,53.89,39.63,53.89z"/>
	</g>
	<g>
		<path class="st1" d="M50.07,42.87c0,0,0.61,0.25,1.21,0.49c0.6,0.25,1.2,0.5,1.2,0.5s0.14-0.09,0.35-0.22
			c0.22-0.13,0.5-0.29,0.79-0.46c0.57-0.33,1.15-0.67,1.15-0.67s-0.09,0.65-0.18,1.3c-0.08,0.64-0.16,1.28-0.16,1.28l1.95,1.72
			c0,0-0.16,0.03-0.39,0.07c-0.24,0.04-0.55,0.09-0.85,0.16c-0.62,0.14-1.24,0.27-1.24,0.27s-0.22,0.59-0.45,1.19
			c-0.23,0.58-0.42,1.19-0.42,1.19l-1.42-2.19c0,0-0.64-0.01-1.29-0.02c-0.65,0-1.31-0.01-1.31-0.01s0.41-0.52,0.82-1.04
			c0.4-0.53,0.85-1.02,0.85-1.02s-0.16-0.63-0.32-1.26C50.22,43.51,50.07,42.87,50.07,42.87z"/>
	</g>
	<g>
		<path class="st1" d="M62.5,34.17c0,0,0.54,0.36,1.09,0.72c0.54,0.37,1.08,0.74,1.08,0.74l2.51-0.87c0,0-0.22,0.62-0.43,1.24
			c-0.21,0.62-0.41,1.23-0.41,1.23l1.57,2.08c0,0-0.63-0.02-1.27-0.03c-0.32-0.01-0.63,0-0.87,0c-0.24,0.01-0.4,0.01-0.4,0.01
			l-1.32,2.15l-0.94-2.41c0,0-0.64-0.17-1.27-0.3c-0.64-0.13-1.27-0.26-1.27-0.26s0.5-0.44,1.01-0.86c0.52-0.41,1.05-0.82,1.05-0.82
			s-0.03-0.65-0.07-1.31C62.52,34.83,62.5,34.17,62.5,34.17z"/>
	</g>
	<g>
		<path class="st1" d="M75.64,26.89c0,0,0.54,0.36,1.09,0.72c0.54,0.37,1.08,0.74,1.08,0.74l2.51-0.87c0,0-0.22,0.62-0.43,1.24
			c-0.21,0.62-0.41,1.23-0.41,1.23l1.57,2.08c0,0-0.63-0.02-1.27-0.03c-0.32-0.01-0.63,0-0.87,0c-0.24,0.01-0.4,0.01-0.4,0.01
			l-1.32,2.15l-0.94-2.41c0,0-0.64-0.17-1.27-0.3c-0.64-0.13-1.27-0.26-1.27-0.26s0.5-0.44,1.01-0.86c0.52-0.41,1.05-0.82,1.05-0.82
			s-0.03-0.65-0.07-1.31C75.66,27.54,75.64,26.89,75.64,26.89z"/>
	</g>
	<g>
		<path class="st1" d="M90.15,23.24c0,0,0.54,0.36,1.09,0.72c0.54,0.37,1.08,0.74,1.08,0.74l2.51-0.87c0,0-0.22,0.62-0.43,1.24
			c-0.21,0.62-0.41,1.23-0.41,1.23l1.57,2.08c0,0-0.63-0.02-1.27-0.03c-0.32-0.01-0.63,0-0.87,0c-0.24,0.01-0.4,0.01-0.4,0.01
			l-1.32,2.15l-0.94-2.41c0,0-0.64-0.17-1.27-0.3c-0.64-0.13-1.27-0.26-1.27-0.26s0.5-0.44,1.01-0.86c0.52-0.41,1.05-0.82,1.05-0.82
			s-0.03-0.65-0.07-1.31C90.18,23.9,90.15,23.24,90.15,23.24z"/>
	</g>
	<g>
		<path class="st1" d="M105.66,23.24c0,0,0.54,0.36,1.09,0.72c0.54,0.37,1.08,0.74,1.08,0.74l2.51-0.87c0,0-0.22,0.62-0.43,1.24
			c-0.21,0.62-0.41,1.23-0.41,1.23l1.57,2.08c0,0-0.63-0.02-1.27-0.03c-0.32-0.01-0.63,0-0.87,0c-0.24,0.01-0.4,0.01-0.4,0.01
			l-1.32,2.15l-0.94-2.41c0,0-0.64-0.17-1.27-0.3c-0.64-0.13-1.27-0.26-1.27-0.26s0.5-0.44,1.01-0.86c0.52-0.41,1.05-0.82,1.05-0.82
			s-0.03-0.65-0.07-1.31C105.68,23.9,105.66,23.24,105.66,23.24z"/>
	</g>
	<g>
		<path class="st1" d="M120.08,26.75c0,0,0.54,0.36,1.09,0.72c0.54,0.37,1.08,0.74,1.08,0.74l2.51-0.87c0,0-0.22,0.62-0.43,1.24
			c-0.21,0.62-0.41,1.23-0.41,1.23l1.57,2.08c0,0-0.63-0.02-1.27-0.03c-0.32-0.01-0.63,0-0.87,0c-0.24,0.01-0.4,0.01-0.4,0.01
			l-1.32,2.15l-0.94-2.41c0,0-0.64-0.17-1.27-0.3c-0.64-0.13-1.27-0.26-1.27-0.26s0.5-0.44,1.01-0.86c0.52-0.41,1.05-0.82,1.05-0.82
			s-0.03-0.65-0.07-1.31C120.1,27.41,120.08,26.75,120.08,26.75z"/>
	</g>
	<g>
		<path class="st1" d="M137.5,34.03c0,0-0.02,0.66-0.05,1.32c-0.03,0.65-0.06,1.31-0.06,1.31s0.52,0.41,1.05,0.82
			c0.26,0.2,0.52,0.42,0.7,0.58c0.19,0.16,0.31,0.27,0.31,0.27s-0.64,0.13-1.27,0.27c-0.64,0.16-1.27,0.31-1.27,0.31l-0.93,2.42
			l-1.33-2.16c0,0-0.63-0.03-1.27,0c-0.63,0.02-1.27,0.03-1.27,0.03l1.56-2.08c0,0-0.21-0.62-0.42-1.23
			c-0.22-0.62-0.44-1.24-0.44-1.24l2.51,0.87c0,0,0.54-0.38,1.08-0.76C136.96,34.39,137.5,34.03,137.5,34.03z"/>
	</g>
	<g>
		<path class="st1" d="M149.97,42.69c0,0-0.15,0.64-0.31,1.28c-0.16,0.63-0.32,1.27-0.32,1.27s0.11,0.13,0.27,0.31
			c0.16,0.19,0.39,0.43,0.59,0.7c0.41,0.52,0.82,1.04,0.82,1.04s-0.65,0.01-1.3,0.01c-0.32,0.01-0.64,0.01-0.89,0.02
			c-0.25,0.01-0.41,0.02-0.41,0.02l-1.4,2.18c0,0-0.05-0.15-0.13-0.37c-0.08-0.22-0.19-0.51-0.3-0.81
			c-0.22-0.59-0.45-1.19-0.45-1.19s-0.62-0.13-1.23-0.27c-0.62-0.12-1.25-0.22-1.25-0.22l1.95-1.73c0,0-0.08-0.64-0.17-1.28
			c-0.09-0.65-0.18-1.3-0.18-1.3s0.57,0.33,1.15,0.66c0.29,0.17,0.58,0.33,0.79,0.46c0.22,0.12,0.36,0.21,0.36,0.21
			s0.6-0.25,1.2-0.51C149.36,42.94,149.97,42.69,149.97,42.69z"/>
	</g>
	<g>
		<path class="st1" d="M160.44,53.67c0,0-0.27,0.59-0.55,1.19c-0.28,0.59-0.56,1.17-0.56,1.17s0.09,0.14,0.2,0.36
			c0.11,0.22,0.27,0.52,0.42,0.81c0.3,0.59,0.61,1.18,0.61,1.18s-0.64-0.12-1.29-0.25c-0.64-0.11-1.27-0.23-1.27-0.23l-1.82,1.86
			c0,0-0.07-0.63-0.16-1.26c-0.11-0.62-0.21-1.25-0.21-1.25s-0.58-0.25-1.16-0.5c-0.29-0.12-0.58-0.25-0.79-0.34
			c-0.22-0.09-0.37-0.14-0.37-0.14l2.25-1.3c0,0,0.06-0.64,0.09-1.29c0.04-0.65,0.07-1.3,0.07-1.3s0.5,0.44,1,0.87
			c0.26,0.21,0.49,0.44,0.67,0.62c0.18,0.17,0.3,0.29,0.3,0.29s0.64-0.13,1.28-0.26C159.8,53.79,160.44,53.67,160.44,53.67z"/>
	</g>
</g>
<g>
	<path class="st0" d="M188.88,121.82h-26.23v-45.1h26.23V63.28H11.24v13.44h26.23v45.1H11.24v13.44h177.64V121.82z M18.38,73.7v-7.4
		h6.06v7.4H18.38z M34.11,73.7v-7.4h6.06v7.4H34.11z M49.84,73.7v-7.4h6.06v7.4H49.84z M65.57,73.7v-7.4h6.06v7.4H65.57z M81.3,73.7
		v-7.4h6.06v7.4H81.3z M97.03,73.7v-7.4h6.06v7.4H97.03z M112.76,73.7v-7.4h6.06v7.4H112.76z M128.49,73.7v-7.4h6.06v7.4H128.49z
		 M144.22,73.7v-7.4h6.06v7.4H144.22z M159.95,73.7v-7.4h6.06v7.4H159.95z M175.68,73.7v-7.4h6.06v7.4H175.68z M43.3,76.72h113.51
		v45.1H43.3V76.72z M18.38,132.24v-7.4h6.06v7.4H18.38z M34.11,132.24v-7.4h6.06v7.4H34.11z M49.84,132.24v-7.4h6.06v7.4H49.84z
		 M65.57,132.24v-7.4h6.06v7.4H65.57z M81.3,132.24v-7.4h6.06v7.4H81.3z M97.03,132.24v-7.4h6.06v7.4H97.03z M112.76,132.24v-7.4
		h6.06v7.4H112.76z M128.49,132.24v-7.4h6.06v7.4H128.49z M144.22,132.24v-7.4h6.06v7.4H144.22z M159.95,132.24v-7.4h6.06v7.4
		H159.95z M175.68,132.24v-7.4h6.06v7.4H175.68z"/>
</g>
<rect x="11.24" y="75.82" class="st0" width="177.64" height="46.9"/>
<rect x="15.54" y="76.91" width="169.05" height="44.72"/>
<g>
	<path class="st1" d="M26.16,110.59V89.38h15.26v3.85H30.17v5.8h10.65v3.7H30.17v7.86H26.16z"/>
	<path class="st1" d="M44.53,110.59V89.35h3.97v21.24H44.53z"/>
	<path class="st1" d="M56.27,89.35v17.54h10.92v3.7H52.27V89.35H56.27z"/>
	<path class="st1" d="M88.53,95.21l-6.92,9.22h-0.79l-6.77-9.25v15.44h-4V89.38h4.61l6.64,9.13l6.64-9.13h4.58v21.24h-4V95.21z"/>
	<path class="st1" d="M115.04,107.92c-2.19,2.15-5.01,3.15-8.07,3.15c-7.89,0-11.23-5.43-11.26-10.95
		c-0.03-5.55,3.58-11.2,11.26-11.2c2.88,0,5.61,1.09,7.8,3.25l-2.67,2.58c-1.4-1.36-3.28-2-5.13-2c-5.13,0-7.34,3.82-7.31,7.37
		c0.03,3.52,2.06,7.19,7.31,7.19c1.85,0,3.94-0.76,5.34-2.15L115.04,107.92z"/>
	<path class="st1" d="M120.99,89.35v17.54h10.92v3.7h-14.93V89.35H120.99z"/>
	<path class="st1" d="M152.13,89.38v12.17c0,6.28-3.85,9.5-9.19,9.5c-5.1,0-9.44-3.09-9.44-9.5V89.38h3.97v12.17
		c0,3.82,2.19,5.86,5.49,5.86s5.19-2.21,5.19-5.86V89.38H152.13z"/>
	<path class="st1" d="M173.32,95.51c0,1.64-0.79,3.22-2.76,4.1c2.49,0.76,3.4,3.4,3.4,4.73c0,4.73-3.55,6.25-7.95,6.25
		c-3.37,0-6.7,0-10.07,0V89.35c3.34,0,6.71,0,10.07,0C170.2,89.35,173.32,91.23,173.32,95.51z M159.88,97.88h6.13
		c2.52,0,3.34-1.06,3.34-2.28c0-0.97-0.79-2.61-3.34-2.61h-6.13V97.88z M159.88,106.86h6.13c1.64,0,3.97-0.55,3.97-2.55
		c0-1.91-2.34-2.91-3.97-2.91h-6.13V106.86z"/>
</g>
</svg>
